 http://www.shotpix.com/images/81543959724977550602.jpeg



Source: d.dvdrip.1400mb
 
http://www.imdb.com/title/tt1856053/

Set right before Christmas, Niko the reindeer must deal with his mom getting re-married and his being tasked with looking after his little stepbrother.

General
Complete name                            : Niko 2 2012 R5 x264 AAC-BiGKATS.mp4
Format                                   : MPEG-4
Format profile                           : Base Media
Codec ID                                 : isom
File size                                : 700 MiB
Duration                                 : 1h 13mn
Overall bit rate mode                    : Variable
Overall bit rate                         : 1 339 Kbps
Encoded date                             : UTC 2013-01-18 15:48:50
Tagged date                              : UTC 2013-01-18 15:48:50

Video
ID                                       : 1
Format                                   : AVC
Format/Info                              : Advanced Video Codec
Format profile                           : High@L4.1
Format settings, CABAC                   : Yes
Format settings, ReFrames                : 3 frames
Codec ID                                 : avc1
Codec ID/Info                            : Advanced Video Coding
Duration                                 : 1h 13mn
Bit rate mode                            : Variable
Bit rate                                 : 1 208 Kbps
Maximum bit rate                         : 40.0 Mbps
Width                                    : 720 pixels
Height                                   : 384 pixels
Display aspect ratio                     : 1.85:1
Frame rate mode                          : Constant
Frame rate                               : 25.000 fps
Color space                              : YUV
Chroma subsampling                       : 4:2:0
Bit depth                                : 8 bits
Scan type                                : Progressive
Bits/(Pixel*Frame)                       : 0.175
Stream size                              : 631 MiB (90%)
Writing library                          : x264 core 129 r2245 bc13772

Audio
ID                                       : 2
Format                                   : AAC
Format/Info                              : Advanced Audio Codec
Format profile                           : LC
Codec ID                                 : 40
Duration                                 : 1h 13mn
Bit rate mode                            : Variable
Bit rate                                 : 128 Kbps
Maximum bit rate                         : 144 Kbps
Channel(s)                               : 6 channels
Channel positions                        : Front: L C R, Side: L R, LFE
Sampling rate                            : 48.0 KHz
Compression mode                         : Lossy
Stream size                              : 66.6 MiB (10%)
Language                                 : English
Encoded date                             : UTC 2013-01-18 15:06:29
Tagged date                              : UTC 2013-01-18 15:49:18

 
http://www.shotpix.com/images/67734980821924977078.png 
http://www.shotpix.com/images/19039713527037237854.png 
http://www.shotpix.com/images/26378521179956349758.png
